<svg width="17" height="16" viewBox="0 0 17 16" fill="none" xmlns="http://www.w3.org/2000/svg">
<path fill-rule="evenodd" clip-rule="evenodd" d="M8.73058 0C4.57058 0 1.20117 3.36941 1.20117 7.52941C1.20117 10.8612 3.35647 13.6753 6.34941 14.6729C6.72588 14.7388 6.86705 14.5129 6.86705 14.3153C6.86705 14.1365 6.85764 13.5435 6.85764 12.9129C4.96588 13.2612 4.47647 12.4518 4.32588 12.0282C4.24117 11.8118 3.87411 11.1435 3.55411 10.9647C3.29058 10.8235 2.91411 10.4753 3.5447 10.4659C4.13764 10.4565 4.56117 11.0118 4.70235 11.2376C5.38 12.3765 6.46235 12.0565 6.89529 11.8588C6.96117 11.3694 7.15882 11.04 7.37529 10.8518C5.7 10.6635 3.94941 10.0141 3.94941 7.13412C3.94941 6.31529 4.24117 5.63765 4.72117 5.11059C4.64588 4.92235 4.38235 4.15059 4.79647 3.11529C4.79647 3.11529 5.42705 2.91765 6.86705 3.88706C7.46941 3.71765 8.10941 3.63294 8.74941 3.63294C9.38941 3.63294 10.0294 3.71765 10.6318 3.88706C12.0718 2.90824 12.7023 3.11529 12.7023 3.11529C13.1165 4.15059 12.8529 4.92235 12.7776 5.11059C13.2576 5.63765 13.5494 6.30588 13.5494 7.13412C13.5494 10.0235 11.7894 10.6635 10.1141 10.8518C10.3871 11.0871 10.6223 11.5388 10.6223 12.2447C10.6223 13.2518 10.6129 14.0612 10.6129 14.3153C10.6129 14.5129 10.7541 14.7482 11.1306 14.6729C14.1047 13.6753 16.26 10.8518 16.26 7.52941C16.26 3.36941 12.8906 0 8.73058 0Z" fill="#283849"/>
</svg>
