<svg width="17" height="16" viewBox="0 0 17 16" fill="none" xmlns="http://www.w3.org/2000/svg">
<path d="M15.488 7.86638C15.488 7.35993 15.4431 6.87909 15.3662 6.41113H8.12207V9.30243H12.2698C12.084 10.2511 11.539 11.0525 10.7312 11.5974V13.5207H13.2058C14.6546 12.1808 15.488 10.2063 15.488 7.86638Z" fill="#4285F4"/>
<path d="M8.12272 15.386C10.1998 15.386 11.9371 14.6937 13.2065 13.5205L10.7318 11.5973C10.0395 12.0588 9.16131 12.3409 8.12272 12.3409C6.11613 12.3409 4.41731 10.9882 3.80837 9.16113H1.25684V11.142C2.51971 13.6551 5.11613 15.386 8.12272 15.386Z" fill="#34A853"/>
<path d="M3.80804 9.16113C3.64776 8.69958 3.56446 8.20593 3.56446 7.69308C3.56446 7.18014 3.65425 6.68659 3.80804 6.22503V4.24414H1.25651C0.731052 5.28263 0.429688 6.44932 0.429688 7.69308C0.429688 8.93675 0.731052 10.1035 1.2567 11.142L3.80804 9.16113Z" fill="#FBBC05"/>
<path d="M8.12272 3.04508C9.2574 3.04508 10.2703 3.43614 11.0717 4.19896L13.2642 2.00659C11.9371 0.762918 10.1998 0 8.12272 0C5.11604 0 2.51971 1.73082 1.25684 4.24386L3.80837 6.22485C4.41731 4.39774 6.11613 3.04508 8.12272 3.04508Z" fill="#EA4335"/>
</svg>
